<svg width="42" height="42" viewBox="0 0 42 42" fill="none" xmlns="http://www.w3.org/2000/svg">
<path d="M38.3658 28.2338C38.3658 34.5816 34.5816 38.3658 28.2338 38.3658H26.1585C25.1994 38.3658 24.4146 37.5811 24.4146 36.6219V26.5596C24.4146 26.0888 24.7983 25.6877 25.2691 25.6877L28.3384 25.6354C28.5825 25.6179 28.7918 25.4435 28.8441 25.1994L29.4545 21.8685C29.5068 21.5546 29.2627 21.2582 28.9313 21.2582L25.2168 21.3105C24.7285 21.3105 24.3449 20.9268 24.3274 20.456L24.2577 16.1834C24.2577 15.9044 24.4844 15.6603 24.7808 15.6603L28.9662 15.5905C29.2626 15.5905 29.4894 15.3638 29.4894 15.0673L29.4196 10.8819C29.4196 10.5855 29.1929 10.3588 28.8965 10.3588L24.1879 10.4285C21.293 10.4809 18.9911 12.8525 19.0434 15.7474L19.1306 20.5432C19.148 21.0314 18.7644 21.4151 18.2761 21.4326L16.1834 21.4674C15.8869 21.4674 15.6603 21.6941 15.6603 21.9906L15.7126 25.304C15.7126 25.6005 15.9393 25.8272 16.2357 25.8272L18.3284 25.7923C18.8167 25.7923 19.2003 26.176 19.2178 26.6468L19.3747 36.5871C19.3922 37.5637 18.6074 38.3658 17.6308 38.3658H13.6199C7.27206 38.3658 3.48779 34.5816 3.48779 28.2163V13.6199C3.48779 7.27206 7.27206 3.48779 13.6199 3.48779H28.2338C34.5816 3.48779 38.3658 7.27206 38.3658 13.6199V28.2338V28.2338Z" fill="white"/>
</svg>
