<svg width="36" height="36" viewBox="0 0 36 36" fill="none" xmlns="http://www.w3.org/2000/svg">
<path d="M25.0874 0.487793H10.4735C4.1257 0.487793 0.341431 4.27206 0.341431 10.6199V25.2163C0.341431 31.5816 4.1257 35.3658 10.4735 35.3658H25.07C31.4178 35.3658 35.202 31.5816 35.202 25.2338V10.6199C35.2195 4.27206 31.4352 0.487793 25.0874 0.487793ZM17.7805 24.6932C14.0485 24.6932 11.0141 21.6588 11.0141 17.9268C11.0141 14.1949 14.0485 11.1605 17.7805 11.1605C21.5124 11.1605 24.5468 14.1949 24.5468 17.9268C24.5468 21.6588 21.5124 24.6932 17.7805 24.6932ZM28.1044 8.99804C28.0172 9.20731 27.8951 9.39913 27.7381 9.57352C27.5637 9.73048 27.3719 9.85255 27.1626 9.93974C26.9534 10.0269 26.7267 10.0793 26.5 10.0793C26.0291 10.0793 25.5931 9.90487 25.2618 9.57352C25.1048 9.39913 24.9828 9.20731 24.8956 8.99804C24.8084 8.78877 24.7561 8.56206 24.7561 8.33535C24.7561 8.10865 24.8084 7.88194 24.8956 7.67267C24.9828 7.44596 25.1048 7.27157 25.2618 7.09718C25.6629 6.69609 26.2733 6.50426 26.8313 6.62633C26.9534 6.64377 27.058 6.67865 27.1626 6.73096C27.2673 6.76584 27.3719 6.81816 27.4766 6.88792C27.5637 6.94023 27.6509 7.02743 27.7381 7.09718C27.8951 7.27157 28.0172 7.44596 28.1044 7.67267C28.1916 7.88194 28.2439 8.10865 28.2439 8.33535C28.2439 8.56206 28.1916 8.78877 28.1044 8.99804Z" fill="white"/>
</svg>
