<svg width="178" height="48" viewBox="0 0 178 48" fill="none" xmlns="http://www.w3.org/2000/svg">
<path d="M163.476 30.4396C163.715 30.5143 163.954 30.5666 164.193 30.5965C164.432 30.6115 164.671 30.6189 164.91 30.6189C165.508 30.6189 166.083 30.5368 166.635 30.3724C167.188 30.2081 167.704 29.9765 168.182 29.6777C168.675 29.364 169.108 28.9905 169.481 28.5573C169.87 28.1091 170.184 27.6161 170.423 27.0782L174.904 31.5825C174.337 32.3893 173.679 33.1138 172.932 33.7562C172.2 34.3986 171.401 34.9439 170.535 35.3921C169.683 35.8403 168.779 36.1764 167.823 36.4005C166.882 36.6396 165.911 36.7591 164.91 36.7591C163.222 36.7591 161.631 36.4453 160.137 35.8179C158.658 35.1904 157.358 34.3165 156.238 33.196C155.132 32.0755 154.258 30.7459 153.616 29.2071C152.973 27.6534 152.652 25.9503 152.652 24.0978C152.652 22.2005 152.973 20.4675 153.616 18.8988C154.258 17.3302 155.132 15.9931 156.238 14.8876C157.358 13.7821 158.658 12.923 160.137 12.3105C161.631 11.698 163.222 11.3917 164.91 11.3917C165.911 11.3917 166.889 11.5112 167.846 11.7503C168.802 11.9893 169.706 12.3329 170.557 12.7811C171.424 13.2293 172.23 13.7821 172.977 14.4394C173.724 15.0818 174.382 15.8064 174.949 16.6131L163.476 30.4396ZM166.613 17.8232C166.329 17.7186 166.045 17.6514 165.761 17.6215C165.493 17.5916 165.209 17.5767 164.91 17.5767C164.073 17.5767 163.282 17.7336 162.535 18.0473C161.803 18.3461 161.16 18.7793 160.607 19.347C160.07 19.9147 159.644 20.602 159.33 21.4087C159.016 22.2005 158.859 23.0969 158.859 24.0978C158.859 24.3219 158.867 24.5759 158.882 24.8597C158.912 25.1436 158.949 25.4349 158.994 25.7337C159.054 26.0175 159.121 26.2939 159.196 26.5628C159.27 26.8317 159.367 27.0708 159.487 27.2799L166.613 17.8232Z" fill="#263238"/>
<path d="M139.543 30.4396C139.782 30.5143 140.021 30.5666 140.26 30.5965C140.499 30.6115 140.738 30.6189 140.977 30.6189C141.574 30.6189 142.15 30.5368 142.702 30.3724C143.255 30.2081 143.77 29.9765 144.249 29.6777C144.742 29.364 145.175 28.9905 145.548 28.5573C145.937 28.1091 146.25 27.6161 146.489 27.0782L150.971 31.5825C150.404 32.3893 149.746 33.1138 148.999 33.7562C148.267 34.3986 147.468 34.9439 146.602 35.3921C145.75 35.8403 144.846 36.1764 143.89 36.4005C142.949 36.6396 141.978 36.7591 140.977 36.7591C139.289 36.7591 137.698 36.4453 136.204 35.8179C134.725 35.1904 133.425 34.3165 132.304 33.196C131.199 32.0755 130.325 30.7459 129.682 29.2071C129.04 27.6534 128.719 25.9503 128.719 24.0978C128.719 22.2005 129.04 20.4675 129.682 18.8988C130.325 17.3302 131.199 15.9931 132.304 14.8876C133.425 13.7821 134.725 12.923 136.204 12.3105C137.698 11.698 139.289 11.3917 140.977 11.3917C141.978 11.3917 142.956 11.5112 143.912 11.7503C144.869 11.9893 145.772 12.3329 146.624 12.7811C147.49 13.2293 148.297 13.7821 149.044 14.4394C149.791 15.0818 150.448 15.8064 151.016 16.6131L139.543 30.4396ZM142.68 17.8232C142.396 17.7186 142.112 17.6514 141.828 17.6215C141.559 17.5916 141.276 17.5767 140.977 17.5767C140.14 17.5767 139.348 17.7336 138.601 18.0473C137.869 18.3461 137.227 18.7793 136.674 19.347C136.136 19.9147 135.711 20.602 135.397 21.4087C135.083 22.2005 134.926 23.0969 134.926 24.0978C134.926 24.3219 134.934 24.5759 134.949 24.8597C134.979 25.1436 135.016 25.4349 135.061 25.7337C135.12 26.0175 135.188 26.2939 135.262 26.5628C135.337 26.8317 135.434 27.0708 135.554 27.2799L142.68 17.8232Z" fill="#263238"/>
<path d="M126.366 5.78937C126.366 6.35708 126.254 6.88743 126.03 7.38043C125.821 7.87344 125.529 8.30669 125.156 8.68018C124.782 9.03873 124.342 9.33005 123.834 9.55414C123.341 9.76329 122.81 9.86787 122.243 9.86787C121.675 9.86787 121.137 9.76329 120.629 9.55414C120.136 9.33005 119.703 9.03873 119.329 8.68018C118.971 8.30669 118.679 7.87344 118.455 7.38043C118.246 6.88743 118.142 6.35708 118.142 5.78937C118.142 5.23661 118.246 4.71373 118.455 4.22072C118.679 3.71278 118.971 3.27953 119.329 2.92098C119.703 2.54749 120.136 2.25617 120.629 2.04702C121.137 1.82292 121.675 1.71088 122.243 1.71088C122.81 1.71088 123.341 1.82292 123.834 2.04702C124.342 2.25617 124.782 2.54749 125.156 2.92098C125.529 3.27953 125.821 3.71278 126.03 4.22072C126.254 4.71373 126.366 5.23661 126.366 5.78937ZM125.313 36.3109H119.15V12.3105H125.313V36.3109Z" fill="#263238"/>
<path d="M15.7535 36.3109H1.77008V30.2155H15.7535C16.1718 30.2155 16.5304 30.0662 16.8291 29.7674C17.1279 29.4686 17.2773 29.11 17.2773 28.6917C17.2773 28.2585 17.1279 27.9746 16.8291 27.8402C16.5304 27.7057 16.1718 27.6385 15.7535 27.6385H9.38925C8.32854 27.6385 7.33506 27.4368 6.40881 27.0334C5.48256 26.6301 4.67582 26.0848 3.9886 25.3975C3.30138 24.6954 2.75609 23.8812 2.35272 22.9549C1.96429 22.0287 1.77008 21.0352 1.77008 19.9745C1.77008 18.9138 1.96429 17.9203 2.35272 16.994C2.75609 16.0678 3.30138 15.2611 3.9886 14.5738C4.67582 13.8866 5.48256 13.3488 6.40881 12.9604C7.33506 12.557 8.32854 12.3553 9.38925 12.3553H21.7816V18.4507H9.38925C8.97094 18.4507 8.61239 18.6 8.3136 18.8988C8.01481 19.1976 7.86542 19.5562 7.86542 19.9745C7.86542 20.4077 8.01481 20.7812 8.3136 21.095C8.61239 21.3937 8.97094 21.5431 9.38925 21.5431H15.7535C16.7993 21.5431 17.7853 21.7224 18.7115 22.081C19.6378 22.4246 20.4445 22.9101 21.1317 23.5376C21.819 24.165 22.3642 24.9195 22.7676 25.8009C23.171 26.6823 23.3727 27.6459 23.3727 28.6917C23.3727 29.7524 23.171 30.7459 22.7676 31.6721C22.3642 32.5835 21.819 33.3902 21.1317 34.0924C20.4445 34.7796 19.6378 35.3249 18.7115 35.7282C17.7853 36.1167 16.7993 36.3109 15.7535 36.3109Z" fill="#263238"/>
<path fill-rule="evenodd" clip-rule="evenodd" d="M102.514 11.516C100.907 11.516 99.4005 11.8212 97.9873 12.4287C96.5816 13.0395 95.3492 13.8826 94.2859 14.9597C93.2394 16.0348 92.4082 17.3113 91.7944 18.7958C91.1854 20.2687 90.878 21.868 90.878 23.6004C90.878 25.5046 91.188 27.1931 91.7952 28.6757C92.4081 30.1725 93.2363 31.4287 94.2754 32.4547C95.335 33.4711 96.564 34.2556 97.9675 34.8086C99.3855 35.3616 100.899 35.6399 102.514 35.6399C102.998 35.6399 103.522 35.6114 104.087 35.5535L104.088 35.5533C104.648 35.4974 105.175 35.3929 105.671 35.2412L105.681 35.2383L105.691 35.2356C106.201 35.0978 106.655 34.9211 107.055 34.7084C107.42 34.5001 107.68 34.25 107.856 33.9637L108.986 34.4507C108.811 35.1028 108.572 35.7247 108.269 36.3157C107.966 36.9371 107.554 37.4834 107.036 37.952C106.505 38.4473 105.864 38.823 105.126 39.0863C104.366 39.3725 103.475 39.5053 102.469 39.5053H102.465L100.066 39.4697V44.3437L102.514 44.3795C102.516 44.3795 102.517 44.3795 102.519 44.3795C104.124 44.3789 105.621 44.0737 107.017 43.4674L107.019 43.4665C108.444 42.854 109.677 42.0237 110.724 40.9761L110.726 40.9746L110.727 40.9732C111.79 39.9249 112.627 38.6992 113.238 37.2913C113.845 35.8941 114.15 34.3952 114.15 32.7882V12.4796H113.584L110.971 15.6106L110.49 15.1552C109.945 14.6386 109.355 14.1571 108.722 13.7107L108.719 13.7088L108.716 13.7068C108.104 13.2653 107.456 12.8808 106.772 12.5531C106.092 12.2269 105.391 11.9721 104.669 11.7881C103.956 11.6065 103.239 11.516 102.514 11.516ZM97.4953 11.2867C99.0698 10.6097 100.745 10.2725 102.514 10.2725C103.343 10.2725 104.164 10.3763 104.976 10.5831C105.778 10.7875 106.556 11.0705 107.309 11.4316C108.059 11.7906 108.769 12.212 109.441 12.6959C109.936 13.0454 110.408 13.4158 110.856 13.8073L113.002 11.2361H115.394V32.7882C115.394 34.5575 115.057 36.2258 114.379 37.7867C113.706 39.3361 112.78 40.6945 111.602 41.857C110.439 43.0196 109.074 43.9366 107.511 44.6085C105.951 45.2861 104.283 45.623 102.514 45.623H102.51L98.8223 45.5692V38.2077L102.469 38.2618C102.471 38.2618 102.472 38.2618 102.474 38.2618C103.376 38.2614 104.11 38.1408 104.692 37.9209L104.698 37.9188L104.704 37.9167C105.306 37.7027 105.797 37.4081 106.19 37.0401L106.194 37.0364L106.198 37.0327C106.5 36.7605 106.753 36.4572 106.959 36.122C106.662 36.2414 106.351 36.345 106.025 36.4334C105.449 36.6088 104.844 36.7274 104.213 36.7906C103.612 36.8521 103.046 36.8834 102.514 36.8834C100.753 36.8834 99.0847 36.5791 97.515 35.9669L97.513 35.9662C95.9605 35.3545 94.5914 34.4819 93.4111 33.3488L93.4081 33.3458L93.4051 33.3429C92.2345 32.1881 91.3157 30.7862 90.6444 29.147C89.9668 27.4924 89.6345 25.6402 89.6345 23.6004C89.6345 21.7174 89.9694 19.9553 90.6452 18.3207C91.316 16.6985 92.2323 15.2862 93.3962 14.0908L93.3977 14.0893L93.3992 14.0879C94.5761 12.8953 95.9421 11.9613 97.4932 11.2876L97.4953 11.2867ZM99.9179 16.9238C100.739 16.6119 101.606 16.4575 102.514 16.4575C103.445 16.4575 104.324 16.6656 105.143 17.0822C105.959 17.4748 106.671 18.0072 107.276 18.677C107.88 19.3311 108.352 20.0888 108.692 20.9445C109.051 21.7954 109.231 22.6822 109.231 23.6004C109.231 24.5199 109.05 25.4141 108.692 26.2787C108.351 27.1208 107.88 27.877 107.278 28.5436L107.276 28.5464L107.273 28.5493C106.668 29.2033 105.957 29.7337 105.145 30.1398L105.143 30.1409L105.141 30.142C104.321 30.5434 103.443 30.7432 102.514 30.7432C101.602 30.7432 100.731 30.5799 99.9078 30.2506L99.9008 30.2478L99.8938 30.2448C99.0869 29.899 98.3762 29.4116 97.7661 28.7849L97.7631 28.7818L97.7602 28.7788C97.1632 28.1486 96.6965 27.3998 96.3562 26.5409L96.3554 26.5391L96.3547 26.5373C96.009 25.6484 95.8418 24.6665 95.8418 23.6004C95.8418 22.4937 96.0077 21.4892 96.3542 20.5977C96.6938 19.7089 97.1618 18.9472 97.7659 18.3264L97.7689 18.3233L97.7719 18.3203C98.386 17.7062 99.1017 17.2403 99.914 16.9253L99.9159 16.9246L99.9179 16.9238ZM100.362 18.0855C99.7119 18.3377 99.1444 18.7072 98.6542 19.1966C98.1845 19.6802 97.8022 20.2913 97.5151 21.0434L97.5144 21.0452L97.5137 21.047C97.233 21.7686 97.0854 22.6161 97.0854 23.6004C97.0854 24.5356 97.2317 25.361 97.5132 26.0853C97.7997 26.8075 98.1833 27.4165 98.6601 27.9206C99.153 28.426 99.7238 28.818 100.377 29.0988C101.045 29.3652 101.756 29.4997 102.514 29.4997C103.258 29.4997 103.948 29.3413 104.592 29.0262C105.271 28.6861 105.859 28.2466 106.358 27.7074C106.86 27.1505 107.254 26.5193 107.54 25.8102L107.541 25.8074L107.542 25.8046C107.84 25.0865 107.988 24.3531 107.988 23.6004C107.988 22.8477 107.84 22.1233 107.544 21.4224L107.541 21.4158L107.538 21.4092C107.252 20.6854 106.859 20.057 106.36 19.5183L106.358 19.5155L106.355 19.5127C105.857 18.9605 105.272 18.5237 104.598 18.2L104.591 18.1968L104.585 18.1933C103.942 17.8653 103.254 17.701 102.514 17.701C101.75 17.701 101.034 17.8302 100.362 18.0855Z" fill="#263238"/>
<path fill-rule="evenodd" clip-rule="evenodd" d="M76.4745 11.9643C75.1921 11.9643 73.9621 12.1964 72.7802 12.6607L72.7784 12.6614L72.7765 12.6621C71.6085 13.1125 70.5614 13.7589 69.6321 14.6037L69.1607 15.0323L66.9128 12.4349H66.3398V35.1917H71.214V22.099C71.214 21.3913 71.3491 20.7178 71.6224 20.0846C71.8913 19.447 72.2638 18.8868 72.7407 18.41C73.2182 17.9324 73.7793 17.5595 74.4181 17.2906C75.0654 17.018 75.7528 16.8833 76.4745 16.8833C77.1832 16.8833 77.8577 17.0188 78.4916 17.2929C79.115 17.5625 79.6663 17.9352 80.1411 18.41C80.6179 18.8868 80.9905 19.447 81.2593 20.0846C81.5327 20.7178 81.6678 21.3913 81.6678 22.099V35.1917H86.542V22.099C86.542 20.7019 86.2743 19.3976 85.7424 18.1797L85.7407 18.1758L85.739 18.1718C85.2162 16.9285 84.4987 15.8538 83.5868 14.9419L83.5851 14.9402L83.5834 14.9385C82.6706 14.0116 81.6034 13.2878 80.3769 12.7662L80.3741 12.765L80.3713 12.7638C79.1526 12.2315 77.8557 11.9643 76.4745 11.9643ZM72.3273 11.5026C73.6547 10.9814 75.0385 10.7207 76.4745 10.7207C78.0204 10.7207 79.4864 11.0208 80.8664 11.6231C82.2375 12.2066 83.4396 13.0207 84.4678 14.0643C85.4962 15.0931 86.3013 16.3023 86.8836 17.6858C87.486 19.0663 87.7855 20.5395 87.7855 22.099V36.4352H80.4242V22.099C80.4242 21.5528 80.3207 21.047 80.1168 20.5754L80.1156 20.5727L80.1144 20.5699C79.9053 20.0732 79.6209 19.6484 79.2618 19.2893C78.8999 18.9274 78.4802 18.6428 77.998 18.4343C77.5265 18.2304 77.0207 18.1268 76.4745 18.1268C75.9113 18.1268 75.3887 18.2311 74.9006 18.4366C74.4039 18.6458 73.9791 18.9302 73.62 19.2893C73.2609 19.6484 72.9765 20.0732 72.7673 20.5699L72.7662 20.5727L72.765 20.5754C72.5611 21.047 72.4575 21.5528 72.4575 22.099V36.4352H65.0963V11.1913H67.4812L69.2785 13.2682C70.1978 12.5208 71.2148 11.9317 72.3273 11.5026Z" fill="#263238"/>
<path fill-rule="evenodd" clip-rule="evenodd" d="M48.7766 11.516C47.1676 11.516 45.6587 11.8146 44.2442 12.4087L44.2413 12.4099C42.8376 12.9912 41.6071 13.8117 40.5454 14.8731C39.5017 15.9312 38.6714 17.2055 38.0577 18.7043L38.0569 18.7062C37.4489 20.1767 37.1404 21.8054 37.1404 23.6004C37.1404 25.5358 37.4509 27.2389 38.0577 28.7206C38.6706 30.2173 39.4987 31.4736 40.5379 32.4995C41.5964 33.5149 42.8237 34.2911 44.2252 34.8292C45.6444 35.3684 47.1599 35.6399 48.7766 35.6399C49.501 35.6399 50.2103 35.5494 50.9059 35.3686L50.9087 35.3678C51.6326 35.1833 52.3353 34.9351 53.017 34.623C53.7019 34.2944 54.3505 33.9165 54.963 33.4893C55.6006 33.04 56.2011 32.5624 56.7648 32.0565L57.2797 31.5944L59.8737 35.1917H60.4127V12.4796H59.8464L57.2331 15.6106L56.7525 15.1552C56.2071 14.6386 55.6179 14.1571 54.9844 13.7107L54.9816 13.7088L54.9789 13.7068C54.3665 13.2653 53.7186 12.8808 53.0346 12.5531C52.354 12.2269 51.653 11.9721 50.9312 11.7881C50.2188 11.6065 49.501 11.516 48.7766 11.516ZM43.7643 11.2615C45.3372 10.6012 47.0099 10.2725 48.7766 10.2725C49.6059 10.2725 50.4268 10.3763 51.2383 10.5831C52.0403 10.7875 52.8184 11.0705 53.5719 11.4316C54.3211 11.7906 55.0317 12.2121 55.7033 12.696C56.1991 13.0455 56.6709 13.4159 57.1185 13.8073L59.2645 11.2361H61.6562V36.4352H59.2373L57.0735 33.4345C56.6277 33.808 56.1626 34.1653 55.6782 34.5066L55.6759 34.5082C55.0054 34.976 54.2965 35.3888 53.5495 35.7467L53.5447 35.749L53.5399 35.7512C52.7892 36.0953 52.0147 36.3691 51.2168 36.5726C50.419 36.7798 49.6052 36.8834 48.7766 36.8834C47.0172 36.8834 45.3509 36.5873 43.7825 35.9913L43.7806 35.9906C42.2258 35.3938 40.855 34.5278 39.6736 33.3936L39.6705 33.3907L39.6675 33.3877C38.497 32.233 37.5782 30.831 36.9069 29.1918C36.2289 27.5362 35.8969 25.6687 35.8969 23.6004C35.8969 21.6608 36.2307 19.8687 36.9073 18.232C37.578 16.5945 38.4951 15.1805 39.6616 13.9983L39.663 13.9968L39.6645 13.9953C40.843 12.8168 42.2111 11.9049 43.7643 11.2615ZM46.1803 16.9238C47.0011 16.6119 47.8681 16.4575 48.7766 16.4575C49.707 16.4575 50.5862 16.6655 51.4054 17.0822C52.221 17.4748 52.9333 18.0071 53.5383 18.6768C54.1427 19.3309 54.6143 20.0887 54.9543 20.9445C55.3133 21.7954 55.4937 22.6822 55.4937 23.6004C55.4937 24.5198 55.3128 25.4139 54.9543 26.2785C54.6139 27.1207 54.1424 27.8769 53.5408 28.5436L53.5382 28.5464L53.5356 28.5493C52.9306 29.2033 52.2199 29.7337 51.4076 30.1398L51.4053 30.1409L51.403 30.142C50.5836 30.5434 49.7054 30.7432 48.7766 30.7432C47.8681 30.7432 47.0011 30.5888 46.1803 30.2769L46.1784 30.2762L46.1764 30.2754C45.3641 29.9605 44.6485 29.4946 44.0343 28.8804L44.0313 28.8774L44.0283 28.8744C43.4257 28.255 42.9574 27.5018 42.6172 26.6269L42.6165 26.6251L42.6158 26.6233C42.2704 25.7188 42.1043 24.7079 42.1043 23.6004C42.1043 22.4938 42.2701 21.4894 42.6165 20.598C42.9561 19.7091 43.4242 18.9473 44.0283 18.3264L44.0313 18.3233L44.0343 18.3203C44.6485 17.7062 45.3641 17.2403 46.1764 16.9253L46.1784 16.9246L46.1803 16.9238ZM46.624 18.0855C45.9743 18.3377 45.4069 18.7072 44.9167 19.1966C44.447 19.6802 44.0647 20.2913 43.7775 21.0434L43.7768 21.0452L43.7761 21.047C43.4955 21.7686 43.3478 22.6161 43.3478 23.6004C43.3478 24.5834 43.4951 25.4393 43.7767 26.1777C44.0633 26.914 44.4453 27.5188 44.9166 28.0041C45.4068 28.4935 45.9743 28.863 46.624 29.1152C47.2966 29.3705 48.0126 29.4997 48.7766 29.4997C49.5201 29.4997 50.2099 29.3414 50.8539 29.0263C51.5334 28.6862 52.1208 28.2468 52.6202 27.7076C53.1222 27.1506 53.516 26.5193 53.8024 25.8102L53.8035 25.8074L53.8046 25.8046C54.1028 25.0865 54.2501 24.3531 54.2501 23.6004C54.2501 22.8477 54.1028 22.1233 53.8063 21.4224L53.8035 21.4158L53.8009 21.4092C53.5141 20.6854 53.121 20.057 52.6227 19.5183L52.6201 19.5155L52.6176 19.5127C52.1192 18.9605 51.5349 18.5237 50.8605 18.2L50.8537 18.1968L50.847 18.1933C50.2041 17.8653 49.5168 17.701 48.7766 17.701C48.0126 17.701 47.2966 17.8302 46.624 18.0855Z" fill="#263238"/>
<path fill-rule="evenodd" clip-rule="evenodd" d="M26.3281 1.64496H33.7342V36.4352H26.3281V1.64496ZM27.5716 2.88848V35.1917H32.4907V2.88848H27.5716Z" fill="#263238"/>
</svg>
