<svg width="36" height="30" viewBox="0 0 36 30" fill="none" xmlns="http://www.w3.org/2000/svg">
<path d="M31.7712 9.05712C31.7294 8.66741 31.6807 8.35511 31.6405 8.13253L34.9268 3.20304C35.1334 2.8931 35.1203 2.48613 34.8942 2.1901C34.6681 1.89407 34.2789 1.77437 33.9255 1.89216L29.3553 3.41556C29.1138 3.05534 28.7556 2.5802 28.2782 2.10281C27.3112 1.13582 25.7946 0.103516 23.7379 0.103516C21.6058 0.103516 20.0279 0.700244 18.9013 1.67991C17.7863 2.64952 17.1981 3.92037 16.8973 5.12374C16.5968 6.32556 16.5701 7.50831 16.6135 8.3761C16.6261 8.62917 16.6449 8.85821 16.6653 9.05643C14.4764 9.5219 12.186 8.80886 9.94239 7.47735C7.46832 6.00908 5.20038 3.87559 3.4276 2.10281C3.18172 1.85693 2.81327 1.78065 2.48998 1.90868C2.16669 2.03671 1.95037 2.34458 1.93951 2.69213C1.71734 9.80171 3.18309 18.4071 9.80611 22.7708C7.02041 24.2778 4.28921 24.9806 0.958979 25.3968C0.577706 25.4445 0.272571 25.7361 0.207698 26.1148C0.142826 26.4936 0.333509 26.8701 0.677184 27.042C9.67345 31.5401 21.3311 31.215 27.9232 22.4255C30.6559 18.7819 31.5716 15.1289 31.8004 12.3832C31.9147 11.012 31.8579 9.86602 31.7712 9.05712Z" fill="white"/>
</svg>
