<svg width="147" height="38" viewBox="0 0 147 38" fill="none" xmlns="http://www.w3.org/2000/svg">
<path d="M12.0651 30H0.283854V24.8646H12.0651C12.4175 24.8646 12.7196 24.7387 12.9714 24.487C13.2231 24.2352 13.349 23.9332 13.349 23.5807C13.349 23.2157 13.2231 22.9766 12.9714 22.8633C12.7196 22.75 12.4175 22.6934 12.0651 22.6934H6.70312C5.80946 22.6934 4.97244 22.5234 4.19206 22.1836C3.41167 21.8438 2.73199 21.3843 2.15299 20.8053C1.574 20.2138 1.11458 19.5278 0.774739 18.7474C0.447482 17.967 0.283854 17.13 0.283854 16.2363C0.283854 15.3427 0.447482 14.5056 0.774739 13.7253C1.11458 12.9449 1.574 12.2652 2.15299 11.6862C2.73199 11.1072 3.41167 10.6541 4.19206 10.3268C4.97244 9.98698 5.80946 9.81706 6.70312 9.81706H17.1439V14.9525H6.70312C6.35069 14.9525 6.04861 15.0783 5.79687 15.3301C5.54514 15.5818 5.41927 15.8839 5.41927 16.2363C5.41927 16.6013 5.54514 16.916 5.79687 17.1803C6.04861 17.4321 6.35069 17.5579 6.70312 17.5579H12.0651C12.9462 17.5579 13.7769 17.709 14.5573 18.0111C15.3377 18.3006 16.0174 18.7096 16.5964 19.2383C17.1753 19.7669 17.6348 20.4026 17.9746 21.1452C18.3144 21.8878 18.4844 22.6997 18.4844 23.5807C18.4844 24.4744 18.3144 25.3114 17.9746 26.0918C17.6348 26.8596 17.1753 27.5393 16.5964 28.1309C16.0174 28.7099 15.3377 29.1693 14.5573 29.5091C13.7769 29.8364 12.9462 30 12.0651 30ZM26.4329 30H21.2409V1.73633H26.4329V30ZM49.9577 30H48.7116L46.7103 27.2246C46.2194 27.6651 45.697 28.0805 45.1432 28.4707C44.602 28.8483 44.0293 29.1819 43.4251 29.4714C42.821 29.7483 42.1979 29.9685 41.556 30.1322C40.9266 30.2958 40.2847 30.3776 39.6302 30.3776C38.2079 30.3776 36.8674 30.1385 35.6087 29.6602C34.3626 29.1819 33.2676 28.4896 32.3236 27.5833C31.3921 26.6645 30.6558 25.5443 30.1146 24.2227C29.5733 22.901 29.3027 21.3969 29.3027 19.7103C29.3027 18.1369 29.5733 16.6957 30.1146 15.3867C30.6558 14.0651 31.3921 12.9323 32.3236 11.9883C33.2676 11.0443 34.3626 10.3142 35.6087 9.79818C36.8674 9.26953 38.2079 9.00521 39.6302 9.00521C40.2847 9.00521 40.9329 9.08703 41.5749 9.25065C42.2168 9.41428 42.8398 9.64085 43.444 9.93034C44.0482 10.2198 44.6209 10.5597 45.1621 10.9499C45.7159 11.3401 46.232 11.7617 46.7103 12.2148L48.7116 9.81706H49.9577V30ZM44.7656 19.7103C44.7656 19.0054 44.6272 18.3257 44.3503 17.6712C44.0859 17.0041 43.7209 16.4188 43.2552 15.9154C42.7895 15.3993 42.242 14.9902 41.6126 14.6882C40.9959 14.3735 40.3351 14.2161 39.6302 14.2161C38.9253 14.2161 38.2582 14.3357 37.6289 14.5749C37.0121 14.814 36.4709 15.1665 36.0052 15.6322C35.5521 16.0979 35.1934 16.6769 34.929 17.3691C34.6647 18.0488 34.5325 18.8292 34.5325 19.7103C34.5325 20.5914 34.6647 21.378 34.929 22.0703C35.1934 22.75 35.5521 23.3227 36.0052 23.7884C36.4709 24.2541 37.0121 24.6066 37.6289 24.8457C38.2582 25.0849 38.9253 25.2044 39.6302 25.2044C40.3351 25.2044 40.9959 25.0534 41.6126 24.7513C42.242 24.4366 42.7895 24.0276 43.2552 23.5241C43.7209 23.008 44.0859 22.4227 44.3503 21.7682C44.6272 21.1011 44.7656 20.4151 44.7656 19.7103ZM59.0579 30H53.9036V9.7793H55.1497L56.8489 11.7428C57.6797 10.9876 58.6174 10.4086 59.6621 10.0059C60.7194 9.5905 61.8207 9.38282 62.9661 9.38282C64.1996 9.38282 65.3639 9.62197 66.459 10.1003C67.554 10.566 68.5106 11.2142 69.3288 12.0449C70.1469 12.8631 70.7888 13.826 71.2545 14.9336C71.7328 16.0286 71.972 17.1992 71.972 18.4453V30H66.8177V18.4453C66.8177 17.9167 66.717 17.4195 66.5156 16.9538C66.3142 16.4755 66.0373 16.0601 65.6849 15.7077C65.3325 15.3553 64.9234 15.0783 64.4577 14.877C63.992 14.6756 63.4948 14.5749 62.9661 14.5749C62.4249 14.5749 61.9151 14.6756 61.4368 14.877C60.9585 15.0783 60.5432 15.3553 60.1907 15.7077C59.8383 16.0601 59.5614 16.4755 59.36 16.9538C59.1586 17.4195 59.0579 17.9167 59.0579 18.4453V30ZM90.0404 19.7103C90.0404 19.0054 89.9019 18.3257 89.625 17.6712C89.3607 17.0041 88.9956 16.4188 88.5299 15.9154C88.0642 15.3993 87.5167 14.9902 86.8874 14.6882C86.2706 14.3735 85.6098 14.2161 84.9049 14.2161C84.2001 14.2161 83.533 14.3357 82.9036 14.5749C82.2869 14.814 81.7456 15.1665 81.2799 15.6322C80.8268 16.0979 80.4681 16.6769 80.2038 17.3691C79.9394 18.0488 79.8073 18.8292 79.8073 19.7103C79.8073 20.5536 79.9394 21.3151 80.2038 21.9948C80.4681 22.6619 80.8268 23.2346 81.2799 23.7129C81.7456 24.1912 82.2869 24.5625 82.9036 24.8268C83.533 25.0786 84.2001 25.2044 84.9049 25.2044C85.6098 25.2044 86.2706 25.0534 86.8874 24.7513C87.5167 24.4366 88.0642 24.0276 88.5299 23.5241C88.9956 23.008 89.3607 22.4227 89.625 21.7682C89.9019 21.1011 90.0404 20.4151 90.0404 19.7103ZM95.2324 27.4512C95.2324 28.8735 94.9618 30.2077 94.4206 31.4538C93.8793 32.6999 93.1367 33.7886 92.1927 34.7201C91.2613 35.6515 90.1662 36.3878 88.9075 36.929C87.6614 37.4703 86.3272 37.7409 84.9049 37.7409L82.3183 37.7031V32.5488L84.8672 32.5866C85.6727 32.5866 86.3587 32.4796 86.9251 32.2656C87.4915 32.0642 87.9698 31.781 88.36 31.416C88.7502 31.0636 89.0586 30.6545 89.2851 30.1888C89.5243 29.7231 89.7131 29.2322 89.8515 28.7161C89.6502 29.0434 89.3607 29.314 88.9831 29.528C88.6055 29.7294 88.1838 29.893 87.7181 30.0189C87.265 30.1573 86.7867 30.2517 86.2832 30.3021C85.7923 30.3524 85.3329 30.3776 84.9049 30.3776C83.4826 30.3776 82.1421 30.1322 80.8835 29.6413C79.6374 29.1504 78.5423 28.4518 77.5983 27.5456C76.6669 26.6267 75.9305 25.5065 75.3893 24.1849C74.8481 22.8633 74.5775 21.3717 74.5775 19.7103C74.5775 18.1873 74.8481 16.7713 75.3893 15.4622C75.9305 14.1532 76.6669 13.0204 77.5983 12.0638C78.5423 11.1072 79.6374 10.3583 80.8835 9.81706C82.1421 9.27583 83.4826 9.00521 84.9049 9.00521C85.5594 9.00521 86.2077 9.08703 86.8496 9.25065C87.4915 9.41428 88.1146 9.64085 88.7187 9.93034C89.3229 10.2198 89.8956 10.5597 90.4368 10.9499C90.9907 11.3401 91.5067 11.7617 91.985 12.2148L93.9863 9.81706H95.2324V27.4512ZM105.258 4.28516C105.258 4.76346 105.163 5.21029 104.975 5.62566C104.798 6.04102 104.553 6.40604 104.238 6.72071C103.924 7.02279 103.552 7.26823 103.124 7.45703C102.709 7.63325 102.262 7.72136 101.784 7.72136C101.306 7.72136 100.852 7.63325 100.424 7.45703C100.009 7.26823 99.6441 7.02279 99.3294 6.72071C99.0273 6.40604 98.7819 6.04102 98.5931 5.62566C98.4169 5.21029 98.3288 4.76346 98.3288 4.28516C98.3288 3.81945 98.4169 3.37891 98.5931 2.96355C98.7819 2.53559 99.0273 2.17058 99.3294 1.86849C99.6441 1.55382 100.009 1.30838 100.424 1.13217C100.852 0.943364 101.306 0.848963 101.784 0.848963C102.262 0.848963 102.709 0.943364 103.124 1.13217C103.552 1.30838 103.924 1.55382 104.238 1.86849C104.553 2.17058 104.798 2.53559 104.975 2.96355C105.163 3.37891 105.258 3.81945 105.258 4.28516ZM104.37 30H99.1784V9.7793H104.37V30ZM116.359 25.0534C116.561 25.1163 116.762 25.1604 116.964 25.1855C117.165 25.1981 117.366 25.2044 117.568 25.2044C118.071 25.2044 118.556 25.1352 119.021 24.9967C119.487 24.8583 119.921 24.6632 120.324 24.4115C120.74 24.1471 121.105 23.8325 121.419 23.4674C121.747 23.0898 122.011 22.6745 122.212 22.2214L125.988 26.0163C125.51 26.696 124.956 27.3064 124.327 27.8477C123.71 28.3889 123.037 28.8483 122.307 29.2259C121.589 29.6035 120.828 29.8867 120.022 30.0755C119.229 30.2769 118.411 30.3776 117.568 30.3776C116.145 30.3776 114.805 30.1133 113.546 29.5846C112.3 29.056 111.205 28.3197 110.261 27.3757C109.33 26.4316 108.593 25.3114 108.052 24.015C107.511 22.7059 107.24 21.2711 107.24 19.7103C107.24 18.1118 107.511 16.6517 108.052 15.3301C108.593 14.0085 109.33 12.8819 110.261 11.9505C111.205 11.0191 112.3 10.2954 113.546 9.7793C114.805 9.26324 116.145 9.00521 117.568 9.00521C118.411 9.00521 119.235 9.10591 120.041 9.3073C120.847 9.50868 121.608 9.79818 122.325 10.1758C123.056 10.5534 123.735 11.0191 124.365 11.5729C124.994 12.1142 125.548 12.7246 126.026 13.4043L116.359 25.0534ZM119.003 14.4238C118.763 14.3357 118.524 14.2791 118.285 14.2539C118.059 14.2287 117.819 14.2161 117.568 14.2161C116.863 14.2161 116.196 14.3483 115.566 14.6126C114.95 14.8644 114.408 15.2294 113.943 15.7077C113.49 16.186 113.131 16.765 112.867 17.4447C112.602 18.1118 112.47 18.867 112.47 19.7103C112.47 19.8991 112.476 20.1131 112.489 20.3522C112.514 20.5914 112.546 20.8368 112.583 21.0885C112.634 21.3277 112.69 21.5605 112.753 21.7871C112.816 22.0137 112.898 22.2151 112.999 22.3913L119.003 14.4238ZM136.523 25.0534C136.725 25.1163 136.926 25.1604 137.128 25.1855C137.329 25.1981 137.53 25.2044 137.732 25.2044C138.235 25.2044 138.72 25.1352 139.186 24.9967C139.651 24.8583 140.085 24.6632 140.488 24.4115C140.904 24.1471 141.269 23.8325 141.583 23.4674C141.911 23.0898 142.175 22.6745 142.376 22.2214L146.152 26.0163C145.674 26.696 145.12 27.3064 144.491 27.8477C143.874 28.3889 143.201 28.8483 142.471 29.2259C141.753 29.6035 140.992 29.8867 140.186 30.0755C139.393 30.2769 138.575 30.3776 137.732 30.3776C136.309 30.3776 134.969 30.1133 133.71 29.5846C132.464 29.056 131.369 28.3197 130.425 27.3757C129.494 26.4316 128.757 25.3114 128.216 24.015C127.675 22.7059 127.404 21.2711 127.404 19.7103C127.404 18.1118 127.675 16.6517 128.216 15.3301C128.757 14.0085 129.494 12.8819 130.425 11.9505C131.369 11.0191 132.464 10.2954 133.71 9.7793C134.969 9.26324 136.309 9.00521 137.732 9.00521C138.575 9.00521 139.4 9.10591 140.205 9.3073C141.011 9.50868 141.772 9.79818 142.49 10.1758C143.22 10.5534 143.899 11.0191 144.529 11.5729C145.158 12.1142 145.712 12.7246 146.19 13.4043L136.523 25.0534ZM139.167 14.4238C138.927 14.3357 138.688 14.2791 138.449 14.2539C138.223 14.2287 137.983 14.2161 137.732 14.2161C137.027 14.2161 136.36 14.3483 135.73 14.6126C135.114 14.8644 134.572 15.2294 134.107 15.7077C133.654 16.186 133.295 16.765 133.031 17.4447C132.766 18.1118 132.634 18.867 132.634 19.7103C132.634 19.8991 132.64 20.1131 132.653 20.3522C132.678 20.5914 132.71 20.8368 132.747 21.0885C132.798 21.3277 132.854 21.5605 132.917 21.7871C132.98 22.0137 133.062 22.2151 133.163 22.3913L139.167 14.4238Z" fill="white"/>
</svg>
